<svg width="16" height="16" viewBox="0 0 16 16" fill="none" xmlns="http://www.w3.org/2000/svg">
<g clip-path="url(#clip0_33_4)">
<rect width="16" height="16" fill="white"/>
<path d="M5.094 15V1.332H5.604V15H5.094ZM2.85 15V1.332H3.36V15H2.85ZM3.972 15V1.332H4.482V15H3.972ZM6.216 9.288V8.778H10.211C10.857 8.778 11.4407 8.63633 11.962 8.353C12.4947 8.06967 12.914 7.66733 13.22 7.146C13.5373 6.62467 13.696 6.01267 13.696 5.31C13.696 4.60733 13.5373 3.99533 13.22 3.474C12.914 2.95267 12.4947 2.55033 11.962 2.267C11.4407 1.98367 10.857 1.842 10.211 1.842H6.216V1.332H10.211C10.9477 1.332 11.6163 1.502 12.217 1.842C12.829 2.17067 13.3107 2.63533 13.662 3.236C14.0247 3.82533 14.206 4.51667 14.206 5.31C14.206 6.10333 14.0247 6.80033 13.662 7.401C13.3107 7.99033 12.829 8.455 12.217 8.795C11.6163 9.12367 10.9477 9.288 10.211 9.288H6.216ZM6.216 8.166V7.656H10.211C10.8683 7.656 11.4237 7.452 11.877 7.044C12.3417 6.62467 12.574 6.04667 12.574 5.31C12.574 4.57333 12.3417 4.001 11.877 3.593C11.4237 3.17367 10.8683 2.964 10.211 2.964H6.216V2.454H10.211C10.7437 2.454 11.2253 2.573 11.656 2.811C12.0867 3.03767 12.4323 3.36633 12.693 3.797C12.9537 4.21633 13.084 4.72067 13.084 5.31C13.084 5.89933 12.9537 6.40933 12.693 6.84C12.4323 7.25933 12.0867 7.588 11.656 7.826C11.2253 8.05267 10.7437 8.166 10.211 8.166H6.216ZM6.216 7.044V6.534H10.211C10.551 6.534 10.84 6.43767 11.078 6.245C11.3273 6.041 11.452 5.72933 11.452 5.31C11.452 4.87933 11.3273 4.56767 11.078 4.375C10.84 4.18233 10.551 4.086 10.211 4.086H6.216V3.576H10.211C10.6983 3.576 11.112 3.72333 11.452 4.018C11.792 4.31267 11.962 4.74333 11.962 5.31C11.962 5.87667 11.792 6.30733 11.452 6.602C11.112 6.89667 10.6983 7.044 10.211 7.044H6.216ZM13.509 15L11.112 9.747C11.1913 9.73567 11.2707 9.72433 11.35 9.713C11.4407 9.69033 11.5257 9.662 11.605 9.628L14.07 15H13.509ZM12.268 15L9.905 9.866C9.99567 9.866 10.0863 9.866 10.177 9.866C10.279 9.85467 10.3753 9.84333 10.466 9.832L12.829 15H12.268ZM11.027 15L8.681 9.883H9.242L11.588 15H11.027Z" fill="black"/>
</g>
<defs>
<clipPath id="clip0_33_4">
<rect width="16" height="16" fill="white"/>
</clipPath>
</defs>
</svg>
